{
  "source": "C:\\Users\\Peter\\Desktop\\stuff\\MIUN\\quantitative_research\\video_compression\\videos\\HEVC_CLASS_B\\BasketballDrive_1920x1080_50.y4m",
  "output": "C:\\Users\\Peter\\Desktop\\stuff\\MIUN\\quantitative_research\\video_compression\\compressed_videos\\HEVC_CLASS_B\\h264\\3\\BasketballDrive_1920x1080_50_h264.mp4",
  "codec": "h264",
  "ok": "Input #0, yuv4mpegpipe, from 'C:\\Users\\Peter\\Desktop\\stuff\\MIUN\\quantitative_research\\video_compression\\videos\\HEVC_CLASS_B\\BasketballDrive_1920x1080_50.y4m':\n  Duration: 00:00:10.00, start: 0.000000, bitrate: 1244162 kb/s\n  Stream #0:0: Video: rawvideo (I420 / 0x30323449), yuv420p(progressive), 1920x1080, 50 fps, 50 tbr, 50 tbn\n[out#0/mp4 @ 000001717f96a540] Codec AVOption b:a (set bitrate (in bits/s)) has not been used for any stream. The most likely reason is either wrong type (e.g. a video option with no video streams) or that it is a private option of some decoder which was not actually used for any stream.\nStream mapping:\n  Stream #0:0 -> #0:0 (rawvideo (native) -> h264 (libx264))\nPress [q] to stop, [?] for help\n[libx264 @ 000001717f96c940] using cpu capabilities: MMX2 SSE2Fast SSSE3 SSE4.2 AVX FMA3 BMI2 AVX2\n[libx264 @ 000001717f96c940] profile High, level 5.0, 4:2:0, 8-bit\n[libx264 @ 000001717f96c940] 264 - core 165 r3222 b35605a - H.264/MPEG-4 AVC codec - Copyleft 2003-2025 - http://www.videolan.org/x264.html - options: cabac=1 ref=5 deblock=1:0:0 analyse=0x3:0x113 me=hex subme=8 psy=1 psy_rd=1.00:0.00 mixed_ref=1 me_range=16 chroma_me=1 trellis=2 8x8dct=1 cqm=0 deadzone=21,11 fast_pskip=1 chroma_qp_offset=-2 threads=18 lookahead_threads=3 sliced_threads=0 nr=0 decimate=1 interlaced=0 bluray_compat=0 constrained_intra=0 bframes=3 b_pyramid=2 b_adapt=1 b_bias=0 direct=3 weightb=1 open_gop=0 weightp=2 keyint=250 keyint_min=25 scenecut=40 intra_refresh=0 rc_lookahead=50 rc=cbr mbtree=1 bitrate=3000 ratetol=1.0 qcomp=0.60 qpmin=0 qpmax=69 qpstep=4 vbv_maxrate=3000 vbv_bufsize=3000 nal_hrd=none filler=0 ip_ratio=1.40 aq=1:1.00\nOutput #0, mp4, to 'C:\\Users\\Peter\\Desktop\\stuff\\MIUN\\quantitative_research\\video_compression\\compressed_videos\\HEVC_CLASS_B\\h264\\3\\BasketballDrive_1920x1080_50_h264.mp4':\n  Metadata:\n    encoder         : Lavf62.3.100\n  Stream #0:0: Video: h264 (avc1 / 0x31637661), yuv420p(tv, progressive), 1920x1080, q=2-31, 3000 kb/s, 50 fps, 12800 tbn\n    Metadata:\n      encoder         : Lavc62.11.100 libx264\n    Side data:\n      cpb: bitrate max/min/avg: 3000000/0/3000000 buffer size: 3000000 vbv_delay: N/A\nframe=    0 fps=0.0 q=0.0 size=       0KiB time=N/A bitrate=N/A speed=N/A elapsed=0:00:00.55    \nframe=    0 fps=0.0 q=0.0 size=       0KiB time=N/A bitrate=N/A speed=N/A elapsed=0:00:01.53    \nframe=    4 fps=1.9 q=42.0 size=       0KiB time=N/A bitrate=N/A speed=N/A elapsed=0:00:02.12    \nframe=   10 fps=3.4 q=41.0 size=       0KiB time=00:00:00.16 bitrate=   2.4kbits/s speed=0.0537x elapsed=0:00:02.98    \nframe=   30 fps=8.3 q=39.0 size=       0KiB time=00:00:00.52 bitrate=   0.7kbits/s speed=0.144x elapsed=0:00:03.61    \nframe=   38 fps=8.7 q=39.0 size=       0KiB time=00:00:00.64 bitrate=   0.6kbits/s speed=0.146x elapsed=0:00:04.37    \nframe=   55 fps= 10 q=40.0 size=     256KiB time=00:00:01.02 bitrate=2056.4kbits/s speed=0.191x elapsed=0:00:05.33    \nframe=   61 fps= 10 q=40.0 size=     256KiB time=00:00:01.18 bitrate=1777.6kbits/s speed=0.195x elapsed=0:00:06.05    \nframe=   79 fps= 12 q=40.0 size=     512KiB time=00:00:01.48 bitrate=2834.2kbits/s speed=0.22x elapsed=0:00:06.71    \nframe=   81 fps= 11 q=40.0 size=     512KiB time=00:00:01.58 bitrate=2654.9kbits/s speed=0.215x elapsed=0:00:07.33    \nframe=  100 fps= 13 q=40.0 size=     512KiB time=00:00:01.94 bitrate=2162.2kbits/s speed=0.244x elapsed=0:00:07.95    \nframe=  109 fps= 13 q=40.0 size=     768KiB time=00:00:02.06 bitrate=3054.3kbits/s speed=0.238x elapsed=0:00:08.65    \nframe=  124 fps= 13 q=40.0 size=     768KiB time=00:00:02.44 bitrate=2578.6kbits/s speed=0.261x elapsed=0:00:09.34    \nframe=  130 fps= 13 q=40.0 size=     768KiB time=00:00:02.54 bitrate=2477.1kbits/s speed=0.258x elapsed=0:00:09.85    \nframe=  141 fps= 14 q=40.0 size=     768KiB time=00:00:02.78 bitrate=2263.3kbits/s speed=0.268x elapsed=0:00:10.39    \nframe=  149 fps= 14 q=40.0 size=    1024KiB time=00:00:02.94 bitrate=2853.4kbits/s speed=0.268x elapsed=0:00:10.95    \nframe=  160 fps= 14 q=41.0 size=    1024KiB time=00:00:03.16 bitrate=2654.7kbits/s speed=0.276x elapsed=0:00:11.46    \nframe=  170 fps= 14 q=40.0 size=    1024KiB time=00:00:03.36 bitrate=2496.7kbits/s speed=0.28x elapsed=0:00:12.01    \nframe=  184 fps= 15 q=40.0 size=    1280KiB time=00:00:03.52 bitrate=2979.0kbits/s speed=0.281x elapsed=0:00:12.53    \nframe=  196 fps= 15 q=40.0 size=    1280KiB time=00:00:03.88 bitrate=2702.6kbits/s speed=0.294x elapsed=0:00:13.19    \nframe=  202 fps= 15 q=39.0 size=    1280KiB time=00:00:04.00 bitrate=2621.5kbits/s speed=0.292x elapsed=0:00:13.71    \nframe=  217 fps= 15 q=40.0 size=    1536KiB time=00:00:04.28 bitrate=2940.0kbits/s speed= 0.3x elapsed=0:00:14.24    \nframe=  230 fps= 15 q=39.0 size=    1536KiB time=00:00:04.56 bitrate=2759.5kbits/s speed=0.307x elapsed=0:00:14.87    \nframe=  232 fps= 15 q=39.0 size=    1536KiB time=00:00:04.60 bitrate=2735.5kbits/s speed=0.296x elapsed=0:00:15.56    \nframe=  250 fps= 15 q=40.0 size=    1536KiB time=00:00:04.88 bitrate=2578.5kbits/s speed=0.299x elapsed=0:00:16.30    \nframe=  262 fps= 15 q=39.0 size=    1792KiB time=00:00:05.12 bitrate=2867.3kbits/s speed= 0.3x elapsed=0:00:17.07    \nframe=  270 fps= 15 q=39.0 size=    1792KiB time=00:00:05.36 bitrate=2738.9kbits/s speed= 0.3x elapsed=0:00:17.83    \nframe=  286 fps= 16 q=39.0 size=    1792KiB time=00:00:05.68 bitrate=2584.6kbits/s speed=0.309x elapsed=0:00:18.36    \nframe=  287 fps= 15 q=40.0 size=    1792KiB time=00:00:05.70 bitrate=2575.5kbits/s speed=0.302x elapsed=0:00:18.87    \nframe=  298 fps= 15 q=40.0 size=    2048KiB time=00:00:05.92 bitrate=2834.1kbits/s speed=0.305x elapsed=0:00:19.38    \nframe=  307 fps= 15 q=39.0 size=    2048KiB time=00:00:06.10 bitrate=2750.4kbits/s speed=0.306x elapsed=0:00:19.90    \nframe=  311 fps= 15 q=39.0 size=    2048KiB time=00:00:06.18 bitrate=2714.8kbits/s speed=0.303x elapsed=0:00:20.42    \nframe=  322 fps= 15 q=39.0 size=    2048KiB time=00:00:06.40 bitrate=2621.5kbits/s speed=0.306x elapsed=0:00:20.93    \nframe=  327 fps= 15 q=39.0 size=    2304KiB time=00:00:06.50 bitrate=2903.8kbits/s speed=0.303x elapsed=0:00:21.45    \nframe=  334 fps= 15 q=39.0 size=    2304KiB time=00:00:06.64 bitrate=2842.6kbits/s speed=0.302x elapsed=0:00:21.96    \nframe=  345 fps= 15 q=39.0 size=    2304KiB time=00:00:06.86 bitrate=2751.4kbits/s speed=0.305x elapsed=0:00:22.48    \nframe=  355 fps= 15 q=39.0 size=    2304KiB time=00:00:07.06 bitrate=2673.5kbits/s speed=0.307x elapsed=0:00:23.00    \nframe=  363 fps= 15 q=39.0 size=    2560KiB time=00:00:07.22 bitrate=2904.7kbits/s speed=0.307x elapsed=0:00:23.51    \nframe=  363 fps= 15 q=39.0 size=    2560KiB time=00:00:07.22 bitrate=2904.7kbits/s speed= 0.3x elapsed=0:00:24.03    \nframe=  374 fps= 15 q=39.0 size=    2560KiB time=00:00:07.44 bitrate=2818.8kbits/s speed=0.303x elapsed=0:00:24.55    \nframe=  387 fps= 15 q=39.0 size=    2560KiB time=00:00:07.70 bitrate=2723.6kbits/s speed=0.307x elapsed=0:00:25.05    \nframe=  392 fps= 15 q=39.0 size=    2560KiB time=00:00:07.80 bitrate=2688.7kbits/s speed=0.305x elapsed=0:00:25.57    \nframe=  406 fps= 16 q=39.0 size=    2816KiB time=00:00:08.08 bitrate=2855.1kbits/s speed=0.31x elapsed=0:00:26.08    \nframe=  412 fps= 15 q=39.0 size=    2816KiB time=00:00:08.20 bitrate=2813.3kbits/s speed=0.308x elapsed=0:00:26.60    \nframe=  428 fps= 16 q=40.0 size=    2816KiB time=00:00:08.52 bitrate=2707.6kbits/s speed=0.314x elapsed=0:00:27.13    \nframe=  446 fps= 16 q=40.0 size=    3072KiB time=00:00:08.88 bitrate=2834.0kbits/s speed=0.321x elapsed=0:00:27.64    \nframe=  452 fps= 16 q=40.0 size=    3072KiB time=00:00:09.00 bitrate=2796.2kbits/s speed=0.32x elapsed=0:00:28.15    \nframe=  471 fps= 16 q=40.0 size=    3328KiB time=00:00:09.38 bitrate=2906.5kbits/s speed=0.327x elapsed=0:00:28.67    \nframe=  480 fps= 16 q=38.0 size=    3328KiB time=00:00:09.58 bitrate=2845.9kbits/s speed=0.328x elapsed=0:00:29.18    \nframe=  495 fps= 17 q=-1.0 size=    3328KiB time=00:00:09.86 bitrate=2765.0kbits/s speed=0.332x elapsed=0:00:29.71    \n[mp4 @ 000001717f96b680] Starting second pass: moving the moov atom to the beginning of the file\n[out#0/mp4 @ 000001717f96a540] video:3566KiB audio:0KiB subtitle:0KiB other streams:0KiB global headers:0KiB muxing overhead: 0.189036%\nframe=  500 fps= 17 q=-1.0 Lsize=    3573KiB time=00:00:09.96 bitrate=2938.6kbits/s speed=0.334x elapsed=0:00:29.77    \n[libx264 @ 000001717f96c940] frame I:2     Avg QP:34.82  size: 35122\n[libx264 @ 000001717f96c940] frame P:126   Avg QP:37.75  size: 13987\n[libx264 @ 000001717f96c940] frame B:372   Avg QP:41.15  size:  4888\n[libx264 @ 000001717f96c940] consecutive B-frames:  0.8%  0.0%  0.0% 99.2%\n[libx264 @ 000001717f96c940] mb I  I16..4: 47.7% 45.3%  7.0%\n[libx264 @ 000001717f96c940] mb P  I16..4:  4.1%  5.8%  0.4%  P16..4: 31.7%  3.2%  2.2%  0.0%  0.0%    skip:52.5%\n[libx264 @ 000001717f96c940] mb B  I16..4:  0.1%  0.3%  0.0%  B16..8: 43.5%  1.4%  0.1%  direct: 0.5%  skip:54.0%  L0:39.8% L1:59.2% BI: 0.9%\n[libx264 @ 000001717f96c940] 8x8 transform intra:55.5% inter:87.2%\n[libx264 @ 000001717f96c940] direct mvs  spatial:97.3% temporal:2.7%\n[libx264 @ 000001717f96c940] coded y,uvDC,uvAC intra: 30.3% 43.8% 16.3% inter: 2.6% 4.2% 0.2%\n[libx264 @ 000001717f96c940] i16 v,h,dc,p: 32% 28%  4% 36%\n[libx264 @ 000001717f96c940] i8 v,h,dc,ddl,ddr,vr,hd,vl,hu: 10%  6%  5% 11% 17% 16% 14% 12% 10%\n[libx264 @ 000001717f96c940] i4 v,h,dc,ddl,ddr,vr,hd,vl,hu: 12% 14%  6%  9% 15% 14% 11%  9% 10%\n[libx264 @ 000001717f96c940] i8c dc,h,v,p: 44% 24% 18% 14%\n[libx264 @ 000001717f96c940] Weighted P-Frames: Y:0.0% UV:0.0%\n[libx264 @ 000001717f96c940] ref P L0: 55.1% 15.7% 17.6%  5.5%  6.1%\n[libx264 @ 000001717f96c940] ref B L0: 90.4%  7.1%  1.9%  0.6%\n[libx264 @ 000001717f96c940] ref B L1: 97.1%  2.9%\n[libx264 @ 000001717f96c940] kb/s:2920.74\n",
  "seconds": 30.024691104888916,
  "probe_out": {}
}